<svg width="93" height="92" viewBox="0 0 93 92" fill="none" xmlns="http://www.w3.org/2000/svg">
<g filter="url(#filter0_d_1056_3674)">
<rect x="20.4423" y="0.601074" width="67.3919" height="67.3919" rx="33.696" transform="rotate(15 20.4423 0.601074)" fill="#25252D"/>
<g clip-path="url(#clip0_1056_3674)">
<path d="M59.0039 43.0882C58.7219 42.4777 58.3094 41.9366 57.7954 41.503C57.2815 41.0693 56.6786 40.7538 56.0293 40.5787L49.2831 38.771L50.6784 36.8774C51.2712 36.0434 51.6529 35.0781 51.7907 34.0642C51.9284 33.0503 51.8182 32.0182 51.4694 31.0562C51.1207 30.0943 50.5437 29.2314 49.7882 28.5414C49.0326 27.8514 48.121 27.355 47.1314 27.0948C46.8467 27.0192 46.5461 27.0272 46.2659 27.1181C45.9856 27.2089 45.7375 27.3786 45.5512 27.6069L38.7938 35.9604L35.3171 35.0288C34.14 34.7134 32.8858 34.8785 31.8304 35.4879C30.775 36.0972 30.0049 37.1008 29.6895 38.2779L26.9146 48.634C26.5992 49.8112 26.7643 51.0654 27.3736 52.1207C27.9829 53.1761 28.9866 53.9462 30.1637 54.2616L48.997 59.308C50.0354 59.5859 51.1383 59.4909 52.1139 59.0396C53.0895 58.5883 53.876 57.8092 54.3366 56.838L58.9904 46.9853C59.2781 46.3764 59.4284 45.7117 59.4308 45.0383C59.4331 44.3648 59.2874 43.6991 59.0039 43.0882ZM33.9154 52.0956L30.9565 51.3027C30.5641 51.1976 30.2296 50.9409 30.0265 50.5891C29.8234 50.2373 29.7683 49.8192 29.8735 49.4269L32.6484 39.0707C32.7535 38.6784 33.0102 38.3438 33.362 38.1407C33.7138 37.9376 34.1319 37.8826 34.5243 37.9877L37.4831 38.7806L33.9154 52.0956ZM56.2482 45.6797L51.5944 55.5324C51.439 55.8601 51.1723 56.1221 50.8419 56.2717C50.5114 56.4212 50.1386 56.4487 49.7899 56.3491L36.8743 52.8884L40.7552 38.4046L47.2054 30.4287C47.5872 30.6604 47.9169 30.9688 48.1736 31.3344C48.4303 31.7 48.6084 32.1148 48.6967 32.5527C48.7849 32.9905 48.7815 33.442 48.6865 33.8784C48.5916 34.3149 48.4072 34.727 48.145 35.0886L46.794 36.9941C46.5071 37.3965 46.3218 37.8623 46.254 38.3519C46.1861 38.8414 46.2377 39.3401 46.4044 39.8053C46.571 40.2706 46.8477 40.6886 47.211 41.0237C47.5742 41.3589 48.0131 41.6011 48.4902 41.7299L55.2365 43.5375C55.4539 43.5954 55.6559 43.7005 55.8282 43.8453C56.0004 43.9901 56.1386 44.1711 56.233 44.3754C56.3313 44.5783 56.3837 44.8004 56.3864 45.0258C56.389 45.2513 56.3418 45.4746 56.2482 45.6797Z" fill="white"/>
</g>
</g>
<defs>
<filter id="filter0_d_1056_3674" x="-7.1" y="-7.49893" width="106.738" height="106.738" filterUnits="userSpaceOnUse" color-interpolation-filters="sRGB">
<feFlood flood-opacity="0" result="BackgroundImageFix"/>
<feColorMatrix in="SourceAlpha" type="matrix" values="0 0 0 0 0 0 0 0 0 0 0 0 0 0 0 0 0 0 127 0" result="hardAlpha"/>
<feMorphology radius="2" operator="dilate" in="SourceAlpha" result="effect1_dropShadow_1056_3674"/>
<feOffset dx="2" dy="4"/>
<feGaussianBlur stdDeviation="5.05"/>
<feComposite in2="hardAlpha" operator="out"/>
<feColorMatrix type="matrix" values="0 0 0 0 0 0 0 0 0 0 0 0 0 0 0 0 0 0 0.19 0"/>
<feBlend mode="normal" in2="BackgroundImageFix" result="effect1_dropShadow_1056_3674"/>
<feBlend mode="normal" in="SourceGraphic" in2="effect1_dropShadow_1056_3674" result="shape"/>
</filter>
<clipPath id="clip0_1056_3674">
<rect width="36.7592" height="36.7592" fill="white" transform="translate(31.4876 19.7324) rotate(15)"/>
</clipPath>
</defs>
</svg>
