<svg width="796" height="515" viewBox="0 0 796 515" fill="none" xmlns="http://www.w3.org/2000/svg">
<path d="M-149.207 31.2523C-148.781 29.6466 -147.661 28.9717 -147.219 27.0937C-145.83 21.2019 -130.594 17.2463 -128.357 16.4636C-104.331 8.05707 -76.1502 -1.53676 -50.6839 2.73028C-30.6664 6.08436 -8.40704 25.4271 3.66873 41.6096C12.7873 53.8292 18.2985 69.1671 22.5337 83.9676C36.659 133.33 46.1862 185.946 76.775 227.49C98.572 257.093 125.725 282.729 157.644 299.619C179.608 311.242 204.729 316.027 228.977 319.372C277.59 326.077 327.459 325.66 375.458 336.548C438.95 350.95 494.782 380.421 542.499 426.439C570.894 453.824 590.253 491.208 621.818 514.803C637.648 526.635 653.32 534.665 672.275 539.795C713.369 550.917 752.329 545.814 793.864 539.422" stroke="#09090D" stroke-width="3" stroke-linecap="round" stroke-dasharray="6 38"/>
</svg>
