<svg width="214" height="215" viewBox="0 0 214 215" fill="none" xmlns="http://www.w3.org/2000/svg">
<mask id="path-1-inside-1_1056_3194" fill="white">
<path d="M107 8.60108C107 4.1828 110.587 0.569923 114.993 0.899814C139.876 2.7629 163.423 13.2802 181.463 30.7616C201.424 50.1053 213.074 76.4577 213.947 104.24C214.82 132.023 204.848 159.055 186.141 179.613C169.234 198.193 146.394 210.168 121.677 213.59C117.3 214.196 113.494 210.815 113.216 206.406L110.862 168.98C110.584 164.57 113.958 160.831 118.277 159.899C129.11 157.563 139.023 151.902 146.57 143.607C155.924 133.328 160.91 119.812 160.474 105.921C160.037 92.0294 154.212 78.8532 144.231 69.1813C136.178 61.3773 125.93 56.349 114.971 54.6979C110.602 54.0397 107 50.5194 107 46.1011V8.60108Z"/>
</mask>
<path d="M107 8.60108C107 4.1828 110.587 0.569923 114.993 0.899814C139.876 2.7629 163.423 13.2802 181.463 30.7616C201.424 50.1053 213.074 76.4577 213.947 104.24C214.82 132.023 204.848 159.055 186.141 179.613C169.234 198.193 146.394 210.168 121.677 213.59C117.3 214.196 113.494 210.815 113.216 206.406L110.862 168.98C110.584 164.57 113.958 160.831 118.277 159.899C129.11 157.563 139.023 151.902 146.57 143.607C155.924 133.328 160.91 119.812 160.474 105.921C160.037 92.0294 154.212 78.8532 144.231 69.1813C136.178 61.3773 125.93 56.349 114.971 54.6979C110.602 54.0397 107 50.5194 107 46.1011V8.60108Z" fill="url(#paint0_linear_1056_3194)" stroke="white" stroke-width="6" mask="url(#path-1-inside-1_1056_3194)"/>
<mask id="path-2-inside-2_1056_3194" fill="white">
<path d="M113.662 206.377C113.959 210.785 110.624 214.631 106.206 214.598C94.8593 214.514 83.5812 212.625 72.7978 208.988C59.4835 204.496 47.1843 197.426 36.6023 188.181C26.0204 178.937 17.3629 167.698 11.1243 155.107C6.07157 144.91 2.68561 133.988 1.0786 122.756C0.452836 118.382 3.81613 114.56 8.22439 114.263L45.6394 111.739C50.0477 111.442 53.8025 114.798 54.7533 119.113C55.6854 123.344 57.1301 127.455 59.0622 131.354C62.1815 137.65 66.5102 143.269 71.8012 147.891C77.0921 152.514 83.2418 156.049 89.8989 158.294C94.0223 159.685 98.2904 160.565 102.608 160.92C107.011 161.283 110.841 164.553 111.138 168.962L113.662 206.377Z"/>
</mask>
<path d="M113.662 206.377C113.959 210.785 110.624 214.631 106.206 214.598C94.8593 214.514 83.5812 212.625 72.7978 208.988C59.4835 204.496 47.1843 197.426 36.6023 188.181C26.0204 178.937 17.3629 167.698 11.1243 155.107C6.07157 144.91 2.68561 133.988 1.0786 122.756C0.452836 118.382 3.81613 114.56 8.22439 114.263L45.6394 111.739C50.0477 111.442 53.8025 114.798 54.7533 119.113C55.6854 123.344 57.1301 127.455 59.0622 131.354C62.1815 137.65 66.5102 143.269 71.8012 147.891C77.0921 152.514 83.2418 156.049 89.8989 158.294C94.0223 159.685 98.2904 160.565 102.608 160.92C107.011 161.283 110.841 164.553 111.138 168.962L113.662 206.377Z" fill="#ADDBFF" stroke="white" stroke-width="6" mask="url(#path-2-inside-2_1056_3194)"/>
<mask id="path-3-inside-3_1056_3194" fill="white">
<path d="M8.23631 114.437C3.82858 114.742 -0.0233194 111.414 0.00165039 106.995C0.107234 88.3133 5.10479 69.9331 14.5606 53.7127C24.0164 37.4924 37.5483 24.0873 53.7533 14.7905C57.5857 12.5918 62.3802 14.3036 64.2865 18.2895L80.4658 52.1197C82.3721 56.1055 80.6421 60.8353 76.9847 63.3141C70.3807 67.79 64.8321 73.7065 60.7803 80.6569C56.7285 87.6073 54.3139 95.3509 53.6729 103.303C53.3179 107.707 50.0545 111.543 45.6468 111.848L8.23631 114.437Z"/>
</mask>
<path d="M8.23631 114.437C3.82858 114.742 -0.0233194 111.414 0.00165039 106.995C0.107234 88.3133 5.10479 69.9331 14.5606 53.7127C24.0164 37.4924 37.5483 24.0873 53.7533 14.7905C57.5857 12.5918 62.3802 14.3036 64.2865 18.2895L80.4658 52.1197C82.3721 56.1055 80.6421 60.8353 76.9847 63.3141C70.3807 67.79 64.8321 73.7065 60.7803 80.6569C56.7285 87.6073 54.3139 95.3509 53.6729 103.303C53.3179 107.707 50.0545 111.543 45.6468 111.848L8.23631 114.437Z" fill="#BEFACD" stroke="white" stroke-width="6" mask="url(#path-3-inside-3_1056_3194)"/>
<mask id="path-4-inside-4_1056_3194" fill="white">
<path d="M64.0916 18.383C62.1766 14.4013 63.8431 9.59082 67.9568 7.97864C77.814 4.11546 88.1906 1.73653 98.7463 0.919869C103.151 0.579059 106.747 4.18311 106.758 8.60137L106.85 46.1013C106.86 50.5195 103.268 54.0488 98.9003 54.7178C96.312 55.1142 93.7562 55.7001 91.2537 56.4708C87.0311 57.7712 82.2598 56.1594 80.3448 52.1777L64.0916 18.383Z"/>
</mask>
<path d="M64.0916 18.383C62.1766 14.4013 63.8431 9.59082 67.9568 7.97864C77.814 4.11546 88.1906 1.73653 98.7463 0.919869C103.151 0.579059 106.747 4.18311 106.758 8.60137L106.85 46.1013C106.86 50.5195 103.268 54.0488 98.9003 54.7178C96.312 55.1142 93.7562 55.7001 91.2537 56.4708C87.0311 57.7712 82.2598 56.1594 80.3448 52.1777L64.0916 18.383Z" fill="#E1CBFF" stroke="white" stroke-width="6" mask="url(#path-4-inside-4_1056_3194)"/>
<defs>
<linearGradient id="paint0_linear_1056_3194" x1="107" y1="0.60107" x2="249.552" y2="132.561" gradientUnits="userSpaceOnUse">
<stop stop-color="#0A0A0A"/>
<stop offset="1" stop-color="#1C1C1C" stop-opacity="0.6"/>
<stop offset="1" stop-opacity="0.6"/>
</linearGradient>
</defs>
</svg>
