<svg width="214" height="215" viewBox="0 0 214 215" fill="none" xmlns="http://www.w3.org/2000/svg">
<mask id="path-1-inside-1_1056_3228" fill="white">
<path d="M107 8.60108C107 4.1828 110.587 0.569961 114.993 0.899988C129.957 2.02091 144.55 6.28006 157.81 13.4343C173.421 21.8575 186.693 34.0297 196.431 48.8556C206.17 63.6816 212.07 80.6961 213.601 98.3684C215.132 116.041 212.245 133.816 205.2 150.096C198.155 166.375 187.173 180.648 173.243 191.63C159.313 202.612 142.871 209.958 125.396 213.008C107.922 216.058 89.9637 214.715 73.137 209.101C58.8453 204.333 45.7508 196.611 34.6897 186.469C31.433 183.484 31.6113 178.396 34.8321 175.371L62.1684 149.701C65.3892 146.676 70.4209 146.892 73.8915 149.626C78.7244 153.433 84.1942 156.391 90.0685 158.351C98.4818 161.158 107.461 161.829 116.198 160.304C124.935 158.78 133.156 155.106 140.122 149.616C147.087 144.125 152.577 136.988 156.1 128.848C159.622 120.709 161.066 111.821 160.3 102.985C159.535 94.1486 156.585 85.6413 151.716 78.2283C146.846 70.8154 140.21 64.7293 132.405 60.5177C126.955 57.5771 121.054 55.6147 114.97 54.6981C110.601 54.0399 107 50.5194 107 46.1011V8.60108Z"/>
</mask>
<path d="M107 8.60108C107 4.1828 110.587 0.569961 114.993 0.899988C129.957 2.02091 144.55 6.28006 157.81 13.4343C173.421 21.8575 186.693 34.0297 196.431 48.8556C206.17 63.6816 212.07 80.6961 213.601 98.3684C215.132 116.041 212.245 133.816 205.2 150.096C198.155 166.375 187.173 180.648 173.243 191.63C159.313 202.612 142.871 209.958 125.396 213.008C107.922 216.058 89.9637 214.715 73.137 209.101C58.8453 204.333 45.7508 196.611 34.6897 186.469C31.433 183.484 31.6113 178.396 34.8321 175.371L62.1684 149.701C65.3892 146.676 70.4209 146.892 73.8915 149.626C78.7244 153.433 84.1942 156.391 90.0685 158.351C98.4818 161.158 107.461 161.829 116.198 160.304C124.935 158.78 133.156 155.106 140.122 149.616C147.087 144.125 152.577 136.988 156.1 128.848C159.622 120.709 161.066 111.821 160.3 102.985C159.535 94.1486 156.585 85.6413 151.716 78.2283C146.846 70.8154 140.21 64.7293 132.405 60.5177C126.955 57.5771 121.054 55.6147 114.97 54.6981C110.601 54.0399 107 50.5194 107 46.1011V8.60108Z" fill="url(#paint0_linear_1056_3228)" stroke="white" stroke-width="6" mask="url(#path-1-inside-1_1056_3228)"/>
<mask id="path-2-inside-2_1056_3228" fill="white">
<path d="M38.6917 177.605C35.5675 180.729 30.4766 180.747 27.5944 177.398C15.7773 163.668 7.60972 147.124 3.91841 129.299C-0.315059 108.857 1.52406 87.6221 9.20919 68.2117C16.8943 48.8013 30.0897 32.063 47.1698 20.059C62.0625 9.59225 79.3413 3.1235 97.355 1.20366C101.748 0.735423 105.447 4.23382 105.586 8.64992L106.764 46.1314C106.902 50.5475 103.413 54.1794 99.0671 54.9745C91.4962 56.3597 84.2808 59.3684 77.9325 63.83C69.3925 69.8321 62.7948 78.2012 58.9522 87.9064C55.1097 97.6116 54.1901 108.229 56.3068 118.45C57.8803 126.048 61.0805 133.181 65.6513 139.373C68.2752 142.928 68.3324 147.964 65.2082 151.088L38.6917 177.605Z"/>
</mask>
<path d="M38.6917 177.605C35.5675 180.729 30.4766 180.747 27.5944 177.398C15.7773 163.668 7.60972 147.124 3.91841 129.299C-0.315059 108.857 1.52406 87.6221 9.20919 68.2117C16.8943 48.8013 30.0897 32.063 47.1698 20.059C62.0625 9.59225 79.3413 3.1235 97.355 1.20366C101.748 0.735423 105.447 4.23382 105.586 8.64992L106.764 46.1314C106.902 50.5475 103.413 54.1794 99.0671 54.9745C91.4962 56.3597 84.2808 59.3684 77.9325 63.83C69.3925 69.8321 62.7948 78.2012 58.9522 87.9064C55.1097 97.6116 54.1901 108.229 56.3068 118.45C57.8803 126.048 61.0805 133.181 65.6513 139.373C68.2752 142.928 68.3324 147.964 65.2082 151.088L38.6917 177.605Z" fill="#ADDBFF" stroke="white" stroke-width="6" mask="url(#path-2-inside-2_1056_3228)"/>
<defs>
<linearGradient id="paint0_linear_1056_3228" x1="107" y1="0.60107" x2="249.552" y2="132.561" gradientUnits="userSpaceOnUse">
<stop stop-color="#0A0A0A"/>
<stop offset="1" stop-color="#1C1C1C" stop-opacity="0.6"/>
<stop offset="1" stop-opacity="0.6"/>
</linearGradient>
</defs>
</svg>
