<svg width="214" height="215" viewBox="0 0 214 215" fill="none" xmlns="http://www.w3.org/2000/svg">
<mask id="path-1-inside-1_1056_3248" fill="white">
<path d="M107 8.60108C107 4.1828 110.587 0.569964 114.993 0.899995C128.552 1.91566 141.819 5.50869 154.073 11.5121C168.727 18.691 181.545 29.1264 191.547 42.02C201.548 54.9137 208.468 69.924 211.777 85.9028C214.544 99.2653 214.725 113.009 212.337 126.395C211.561 130.745 207.169 133.32 202.89 132.221L166.568 122.895C162.288 121.797 159.774 117.433 160.223 113.038C160.777 107.614 160.5 102.121 159.388 96.7519C157.734 88.7625 154.274 81.2574 149.273 74.8105C144.273 68.3637 137.864 63.146 130.537 59.5566C125.613 57.1443 120.361 55.5103 114.97 54.6981C110.601 54.0399 107 50.5194 107 46.1011V8.60108Z"/>
</mask>
<path d="M107 8.60108C107 4.1828 110.587 0.569964 114.993 0.899995C128.552 1.91566 141.819 5.50869 154.073 11.5121C168.727 18.691 181.545 29.1264 191.547 42.02C201.548 54.9137 208.468 69.924 211.777 85.9028C214.544 99.2653 214.725 113.009 212.337 126.395C211.561 130.745 207.169 133.32 202.89 132.221L166.568 122.895C162.288 121.797 159.774 117.433 160.223 113.038C160.777 107.614 160.5 102.121 159.388 96.7519C157.734 88.7625 154.274 81.2574 149.273 74.8105C144.273 68.3637 137.864 63.146 130.537 59.5566C125.613 57.1443 120.361 55.5103 114.97 54.6981C110.601 54.0399 107 50.5194 107 46.1011V8.60108Z" fill="url(#paint0_linear_1056_3248)" stroke="white" stroke-width="6" mask="url(#path-1-inside-1_1056_3248)"/>
<mask id="path-2-inside-2_1056_3248" fill="white">
<path d="M202.871 132.292C207.15 133.394 209.754 137.769 208.336 141.953C204.512 153.232 198.827 163.811 191.498 173.245C182.53 184.788 171.293 194.372 158.478 201.404C145.664 208.437 131.544 212.769 116.991 214.134C102.437 215.498 87.7584 213.867 73.8599 209.34C59.9613 204.812 47.1377 197.485 36.1802 187.811C25.2228 178.136 16.3638 166.319 10.1498 153.088C3.93585 139.857 0.498675 125.493 0.050341 110.883C-0.316063 98.9424 1.32016 87.044 4.87314 75.6776C6.19134 71.4606 10.8723 69.4592 14.9791 71.0887L49.8355 84.9191C53.9423 86.5486 55.8864 91.1945 54.8869 95.4982C53.8436 99.9905 53.383 104.61 53.5252 109.242C53.7493 116.547 55.4679 123.729 58.5749 130.344C61.6819 136.96 66.1114 142.868 71.5901 147.706C77.0689 152.543 83.4806 156.207 90.4299 158.47C97.3792 160.734 104.719 161.55 111.995 160.867C119.272 160.185 126.332 158.019 132.739 154.503C139.146 150.986 144.765 146.195 149.249 140.423C152.092 136.763 154.441 132.759 156.243 128.514C157.97 124.447 162.278 121.838 166.557 122.94L202.871 132.292Z"/>
</mask>
<path d="M202.871 132.292C207.15 133.394 209.754 137.769 208.336 141.953C204.512 153.232 198.827 163.811 191.498 173.245C182.53 184.788 171.293 194.372 158.478 201.404C145.664 208.437 131.544 212.769 116.991 214.134C102.437 215.498 87.7584 213.867 73.8599 209.34C59.9613 204.812 47.1377 197.485 36.1802 187.811C25.2228 178.136 16.3638 166.319 10.1498 153.088C3.93585 139.857 0.498675 125.493 0.050341 110.883C-0.316063 98.9424 1.32016 87.044 4.87314 75.6776C6.19134 71.4606 10.8723 69.4592 14.9791 71.0887L49.8355 84.9191C53.9423 86.5486 55.8864 91.1945 54.8869 95.4982C53.8436 99.9905 53.383 104.61 53.5252 109.242C53.7493 116.547 55.4679 123.729 58.5749 130.344C61.6819 136.96 66.1114 142.868 71.5901 147.706C77.0689 152.543 83.4806 156.207 90.4299 158.47C97.3792 160.734 104.719 161.55 111.995 160.867C119.272 160.185 126.332 158.019 132.739 154.503C139.146 150.986 144.765 146.195 149.249 140.423C152.092 136.763 154.441 132.759 156.243 128.514C157.97 124.447 162.278 121.838 166.557 122.94L202.871 132.292Z" fill="#ADDBFF" stroke="white" stroke-width="6" mask="url(#path-2-inside-2_1056_3248)"/>
<mask id="path-3-inside-3_1056_3248" fill="white">
<path d="M14.9318 71.2081C10.8229 69.5839 8.78153 64.9202 10.7081 60.9441C18.8543 44.1312 31.2849 29.699 46.8077 19.137C62.3305 8.57509 80.3183 2.31021 98.9477 0.904426C103.353 0.571967 106.942 4.18281 106.945 8.60109L106.966 46.1011C106.968 50.5194 103.369 54.0418 99.0001 54.7025C91.112 55.8955 83.5553 58.8433 76.9039 63.369C70.2524 67.8948 64.7364 73.8419 60.7311 80.7413C58.5129 84.5624 53.915 86.6175 49.8061 84.9933L14.9318 71.2081Z"/>
</mask>
<path d="M14.9318 71.2081C10.8229 69.5839 8.78153 64.9202 10.7081 60.9441C18.8543 44.1312 31.2849 29.699 46.8077 19.137C62.3305 8.57509 80.3183 2.31021 98.9477 0.904426C103.353 0.571967 106.942 4.18281 106.945 8.60109L106.966 46.1011C106.968 50.5194 103.369 54.0418 99.0001 54.7025C91.112 55.8955 83.5553 58.8433 76.9039 63.369C70.2524 67.8948 64.7364 73.8419 60.7311 80.7413C58.5129 84.5624 53.915 86.6175 49.8061 84.9933L14.9318 71.2081Z" fill="#BEFACD" stroke="white" stroke-width="6" mask="url(#path-3-inside-3_1056_3248)"/>
<defs>
<linearGradient id="paint0_linear_1056_3248" x1="107" y1="0.60107" x2="249.552" y2="132.561" gradientUnits="userSpaceOnUse">
<stop stop-color="#0A0A0A"/>
<stop offset="1" stop-color="#1C1C1C" stop-opacity="0.6"/>
<stop offset="1" stop-opacity="0.6"/>
</linearGradient>
</defs>
</svg>
