<svg width="447" height="458" viewBox="0 0 447 458" fill="none" xmlns="http://www.w3.org/2000/svg">
<circle cx="223.909" cy="234.168" r="223.086" fill="#F4EAFF"/>
<path d="M403.12 389.079C395.441 362.26 384.039 317.789 382.333 284.953C380.824 255.913 387.563 243.275 384.66 210.533C383.363 195.91 378.111 181.768 362.648 180.051C347.184 178.335 344.074 197.428 342.591 209.368C342.113 213.219 341.542 217.135 341.01 221.072C340.071 210.626 337.983 200.396 335.206 189.137C332.392 177.726 327.644 146.582 313.783 143.624C306.588 142.088 298.737 149.286 297.598 159.621C296.35 170.944 296.024 182.007 296.861 192.966C293.856 181.998 279.724 152.966 265.864 157.223C257.225 159.877 255.977 171.564 258.524 180.241C265.277 203.24 284.171 224.682 289.556 250.06C289.575 250.15 289.594 250.236 289.612 250.317C289.47 249.861 289.283 249.307 289.046 248.691C286.346 241.674 282.393 234.649 277.946 228.883C267.712 215.611 260.299 202.238 246.553 195.069C232.547 187.763 221.369 196.393 224.008 206.99C228.08 223.348 241.086 244.68 254.724 256.635C266.245 266.735 272.206 273.676 279.479 281.584C282.234 284.58 287.511 288.453 284.024 286.352C281.871 285.055 278.495 283.028 274.758 280.831C265.854 275.596 257.235 268.375 244.615 263.22C238.151 260.579 233.791 258.523 227.865 257.42C225.56 256.991 223.184 256.86 220.876 257.272C212.08 258.839 207.498 265.03 205.899 272.346C203.862 281.667 209.815 290.478 217.197 296.53C248.339 322.062 267.277 321.682 296.861 327.619C318.298 331.922 334.843 354.113 341.366 373.147C347.288 390.427 350.124 407.125 354.902 417.375C358.136 426.236 368.055 430.794 376.701 427.038L387.769 422.23C400.482 416.707 406.937 402.413 403.12 389.079Z" fill="white" stroke="#09090D" stroke-width="6" stroke-linecap="round"/>
<path d="M19.6403 362.751C30.3988 336.801 46.0667 295.557 51.5285 263.561C56.331 235.426 47.0242 217.333 57.2945 190.704C63.2795 175.186 70.2087 163.35 82.1931 163.35C97.554 163.35 98.5413 182.314 98.7047 194.123C98.7574 197.933 98.8941 201.815 98.9909 205.713C101.042 195.623 104.197 185.869 108.14 175.186C111.555 165.933 114.861 146.32 127.047 136.916C131.261 133.665 137.37 132.264 141.629 135.456C148.24 140.411 148.24 151.467 148.24 151.467C148.24 151.467 146.702 169.719 143.042 188.207C144.431 185.053 145.357 183.073 145.357 183.073C145.357 183.073 161.754 144.781 179.822 146.838C211.664 150.462 155.938 210.7 146.35 239.565C146.321 239.651 146.294 239.733 146.268 239.81C146.456 239.381 146.699 238.862 146.998 238.287C150.406 231.733 155.046 225.307 160.034 220.162C171.513 208.323 180.234 196.079 194.499 190.573C209.034 184.962 218.172 194.613 216.55 205.214C215.007 215.296 194.499 237.617 179.822 249.752C169.075 258.637 162.685 263.571 155.969 268.983C150.833 273.122 146.688 281.203 152.184 277.554C154.33 276.129 156.745 274.289 158.59 272.99C163.811 269.316 180.693 261.132 189.03 257.27C195.283 254.374 200.25 253.519 206.542 253.341C208.556 253.285 211.09 253.453 212.93 254.274C233.252 263.335 208.97 290.045 187.159 294.448C166.343 298.651 141.864 306.213 125.831 319.715C108.549 334.269 96.9325 342.304 84.0782 359.764C74.2338 373.136 65.0996 395.996 65.0996 395.996C60.7179 404.79 49.896 407.98 41.0875 403.626L33.2085 399.732C19.6428 393.027 13.8451 376.729 19.6403 362.751Z" fill="#DDF1FF" stroke="#09090D" stroke-width="6" stroke-linecap="round"/>
<path d="M243.576 3L242.228 73.9712" stroke="#09090D" stroke-width="6" stroke-linecap="round"/>
<path d="M343.352 24.0601C325.142 43.2713 316.688 56.0535 305.456 83.9964" stroke="#09090D" stroke-width="6" stroke-linecap="round"/>
<path d="M134.709 14.2699C151.179 36.7252 158.811 50.6529 169.228 76.2273" stroke="#09090D" stroke-width="6" stroke-linecap="round"/>
<ellipse cx="386.658" cy="116.29" rx="9.98967" ry="10.0251" fill="#09090D"/>
<ellipse cx="58.0812" cy="54.6491" rx="9.98968" ry="10.0251" fill="#09090D"/>
<path d="M6.22051 144.536L8.89508 125.069C9.05668 123.893 10.1996 123.114 11.3514 123.395L36.3768 129.495C37.433 129.752 38.5024 129.117 38.7837 128.065L42.6937 113.441" stroke="#09090D" stroke-width="6" stroke-linecap="round"/>
<rect width="61.1456" height="56.5512" rx="11" transform="matrix(0.932378 0.361486 -0.359267 0.933235 20.7418 351.85)" fill="#09090D"/>
<rect width="61.1397" height="56.5567" rx="11" transform="matrix(0.946976 -0.321304 0.31927 0.947664 343.847 394.403)" fill="#09090D"/>
</svg>
