<svg width="600" height="537" viewBox="0 0 600 537" fill="none" xmlns="http://www.w3.org/2000/svg">
<path d="M2.39425 -148.56C3.05261 -150.092 4.51604 -150.564 5.21634 -152.367C7.41343 -158.024 26.9244 -159.189 29.8046 -159.563C60.7379 -163.577 96.9993 -168.018 128.789 -159.049C153.778 -151.999 180.383 -128.491 194.386 -110.029C204.96 -96.0883 210.749 -79.6821 214.97 -64.0499C229.047 -11.9143 237.08 42.6404 272.509 89.9606C297.755 123.68 330.055 154.403 369.027 177.228C395.844 192.934 427.16 202.359 457.483 210.178C518.276 225.855 581.192 234.614 640.896 254.375C719.868 280.513 788.043 320.364 844.731 375.326C878.466 408.034 900.049 449.112 938.067 478.6C957.133 493.387 976.288 504.33 999.802 512.967C1050.78 531.691 1100.29 533.741 1153.15 534.971" stroke="#09090D" stroke-width="3" stroke-linecap="round" stroke-dasharray="6 38"/>
</svg>
